<svg xmlns="http://www.w3.org/2000/svg" xmlns:xlink="http://www.w3.org/1999/xlink" viewBox="0 0 451.71 148.14"><defs><style>.cls-1{fill:#20201f;}.cls-2{fill:#fff;}.cls-3{fill:#21201f;}.cls-4{fill:url(#linear-gradient);}</style><linearGradient id="linear-gradient" x1="107.38" y1="-90.99" x2="344.77" y2="146.39" gradientUnits="userSpaceOnUse"><stop offset="0" stop-color="#e71d73"/><stop offset="0.5" stop-color="#82368c"/><stop offset="1" stop-color="#009fe3"/></linearGradient></defs><g id="Layer_2" data-name="Layer 2"><g id="Layer_1-2" data-name="Layer 1"><path class="cls-1" d="M140.67,86.85c4.91,0,9.67,0,14.42,0,.79,0,.78.54.93,1l7.32,22.22,1.73,5.21,12.22-19.59c2.19,6.62,4.3,13,6.48,19.58.53-.83,1-1.51,1.39-2.2Q193,100.44,200.9,87.79a1.71,1.71,0,0,1,1.69-1c4.95,0,9.91,0,15.08,0l-38.26,61.29c-2.14-6.59-4.21-13-6.34-19.55l-12.2,19.47Z"/><path class="cls-1" d="M283.63,108.22c4.34,0,8.57,0,12.81,0a2.52,2.52,0,0,0,2.18-1,6,6,0,0,0,1.28-5.81,1.44,1.44,0,0,0-1.56-1.15c-5.64,0-11.27,0-16.91,0-.7,0-.93.18-1,.9-1.07,7.82-2.19,15.63-3.29,23.45-.72,5.09-1.45,10.18-2.15,15.27-.07.56-.29.74-.83.73-4.2,0-8.39,0-12.59,0-.82,0-.79-.38-.71-1q.78-5.38,1.54-10.77,2-14.09,4-28.18c.61-4.39,1.27-8.76,1.85-13.15.09-.64.33-.76.9-.75,10.83,0,21.66-.06,32.49,0,5.47.05,10.56,4.52,12.21,10.38a19.92,19.92,0,0,1-9.73,22.7c-.82.43-.82.81-.55,1.55,2.23,6,4.4,12,6.65,18,.39,1.05.1,1.14-.84,1.13-4.27,0-8.55,0-12.83,0-.62,0-1-.09-1.23-.78q-5.76-15.61-11.59-31.21A2.15,2.15,0,0,1,283.63,108.22Z"/><path class="cls-1" d="M178.87,22c4.33,0,8.56,0,12.8,0a2.69,2.69,0,0,0,2.49-1.33,6,6,0,0,0,.93-5.65,1.33,1.33,0,0,0-1.43-1c-5.63,0-11.27,0-16.91,0-.88,0-1,.35-1.12,1.1q-2.44,17.52-4.94,35.05c-.17,1.18-.38,2.36-.5,3.55-.05.52-.22.66-.73.66-4.28,0-8.55,0-12.83,0-.57,0-.64-.21-.57-.72q1.71-12,3.39-23.91Q161.21,17.4,163,5c.17-1.23.37-2.45.49-3.68.07-.63.35-.75.93-.75,10.79,0,21.59,0,32.38,0,5,0,9.83,3.79,11.8,8.94a19.81,19.81,0,0,1-9.13,24.11c-.86.47-.92.83-.59,1.7,2.23,6,4.37,12,6.59,17.92.32.89.25,1.14-.77,1.13-4.32-.06-8.64,0-13,0-.59,0-.94-.12-1.16-.72Q184.78,38.06,179,22.46A4.25,4.25,0,0,1,178.87,22Z"/><path class="cls-2" d="M228.45,89.06c-11.07,17.22-22.07,34.33-33.13,51.55h61.85l-18-50.32A6,6,0,0,0,228.45,89.06ZM231.18,110l6,17.1H220.28Z"/><path class="cls-2" d="M152.07,53.24c-4.15-11.52-12.59-35.07-17.69-49.3a6,6,0,0,0-10.6-1.21L90.67,54.22a1.29,1.29,0,0,0,1,.17q29.79,0,59.57,0C152.28,54.42,152.42,54.2,152.07,53.24Zm-36.52-12.4c3.63-5.7,7.23-11.33,10.91-17.1l6,17.1Z"/><path class="cls-1" d="M276.76.6c2.12,0,4.24,0,6.36,0,.57,0,.74.1.65.72-1.33,9.16-2.6,18.32-4,27.47-1,6.48,4.44,12.31,11.32,12.07,6.54-.23,13.21-5.2,15-11.49a54,54,0,0,0,1.19-7.43q1.49-10.29,2.91-20.6c.07-.52.24-.75.82-.74,4.24,0,8.48,0,12.71,0,.84,0,.66.42.59.87-.64,4.62-1.27,9.24-1.92,13.86-.69,4.86-1.26,9.73-2.14,14.55-2.15,11.76-12.53,22-24.37,24.19-7.6,1.42-14.73.38-21-4.38-5.7-4.32-8.6-10.21-9.13-17.31-.29-3.82.54-7.54,1-11.29.87-6.52,1.84-13,2.73-19.54.1-.73.32-1,1.08-.95C272.68.64,274.72.6,276.76.6Z"/><path class="cls-1" d="M347.69.6c4.75,0,9.52.17,14.26,0,6.9-.3,12.35,4.36,14.11,10.64,2.57,9.19-2.6,19.79-11.48,23.31a14,14,0,0,1-5.14,1c-3.95,0-7.91,0-11.87,0-.86,0-1-.27-.87-1q.87-5.85,1.67-11.72c.1-.74.42-.87,1.09-.86,3,0,6.08,0,9.12,0a3,3,0,0,0,.95,0c1.64-.63,2.21-2.12,2.65-3.61a4.43,4.43,0,0,0-.56-4c-.25-.35-.64-.26-1-.26-5.68,0-11.35,0-17,0-.75,0-.92.28-1,1q-2.47,17.64-5,35.28c-.16,1.15-.35,2.29-.48,3.44-.05.47-.15.7-.7.69-4.27,0-8.55,0-12.82,0-.52,0-.7-.11-.62-.68q1.36-9.4,2.67-18.82,1.75-12.37,3.5-24.75c.41-2.92.85-5.84,1.2-8.77.1-.84.56-.78,1.14-.78Z"/><path class="cls-1" d="M240.09.6c7.51,0,15,0,22.53,0,.95,0,1.37,0,1.15,1.22-.63,3.61-1.1,7.25-1.54,10.89-.13,1.07-.47,1.41-1.6,1.39-4.72-.08-9.43,0-14.15-.06-1,0-1.32.32-1.45,1.27-.95,7-1.95,14.05-2.94,21.08-.8,5.76-1.62,11.52-2.42,17.28-.07.55-.28.74-.83.74-4.2,0-8.39,0-12.59,0-1,0-.76-.55-.68-1.08q.87-6.27,1.76-12.55,1.63-11.47,3.25-23c.13-.95.23-1.9.43-2.84.16-.76-.08-.94-.84-.94-4.83,0-9.67,0-14.5.05-1.2,0-1.26-.39-1.11-1.35.57-3.66,1.12-7.32,1.58-11,.12-.91.37-1.17,1.29-1.16C225,.62,232.54.6,240.09.6Z"/><path class="cls-1" d="M17.29,54.39c-5.43,0-10.87,0-16.3,0-.86,0-1.09-.2-1-1.06.59-3.82,1.15-7.65,1.64-11.48.12-.85.47-1,1.23-1q14,0,28.05,0c3.51,0,5.16-1.72,5.08-5.23,0-.78-.27-1.17-1.05-1.29-1.22-.2-2.42-.49-3.64-.68-.54-.09-.62-.3-.55-.79q.81-5.74,1.58-11.49c.05-.37,0-.68.57-.69,3.77-.08,7.51-.13,10.82,2.17a14.47,14.47,0,0,1,6.45,13.24c-.33,7.49-3.67,13.25-10.53,16.7a15,15,0,0,1-6.81,1.57C27.68,54.38,22.48,54.39,17.29,54.39Z"/><path class="cls-1" d="M414.34,54.39c-5.39,0-10.78,0-16.18,0-1,0-1.11-.26-1-1.15q.9-5.84,1.68-11.71c.12-.94.74-.66,1.22-.66h28.17c3.32,0,5.1-1.93,4.94-5.29a1.11,1.11,0,0,0-1-1.22c-1.18-.2-2.34-.5-3.52-.66-.62-.09-.82-.27-.73-.89.54-3.79,1.06-7.58,1.6-11.37,0-.3-.1-.75.51-.74,3,0,6-.26,8.82,1.07a14,14,0,0,1,8.4,11.8c.9,8.35-3.57,16.72-11.72,19.79a15.13,15.13,0,0,1-5.49,1Z"/><path class="cls-1" d="M108,2c-.52,3.63-1.05,7.26-1.52,10.89-.11.86-.35,1.19-1.31,1.18-4.87-.06-9.74,0-14.62-.05-.79,0-1,.18-1.16,1Q87.06,32,84.64,48.92c-.22,1.57-.5,3.15-.66,4.73-.07.67-.37.76-.92.75-4.16,0-8.31,0-12.47,0-.74,0-.86-.26-.77-.91q1.38-9.59,2.73-19.17C73.46,27.9,74.36,21.47,75.3,15c.12-.82-.12-1-.91-1-4.84,0-9.67,0-14.51,0a1.81,1.81,0,0,1-.79-.11c-2.43.2-6.08.12-6.63.11q-14.1,0-28.18,0c-3.37,0-5.28,2.1-5,5.39a1.2,1.2,0,0,0,1.12,1.27c1.15.17,2.27.47,3.42.63.61.08.78.3.69.91-.54,3.74-1.06,7.5-1.6,11.24,0,.32.07.77-.51.76-2.7-.06-5.42.23-8.06-.76-5.61-2.11-9.25-7.58-9.28-14A19.07,19.07,0,0,1,16.89,1.62a13.92,13.92,0,0,1,5-1q16.31,0,32.61,0c.31,0,6.35,0,6.78,0h0a2.24,2.24,0,0,1,.38,0c7.59,0,15.18,0,22.77,0h22.3C108.23.61,108.21.6,108,2Z"/><path class="cls-1" d="M434.34.6c5.48,0,11,0,16.43,0,.88,0,1,.21.9,1-.6,3.9-1.17,7.8-1.67,11.72-.11.91-.65.71-1.16.72h-28.3c-3.35,0-5.19,2.11-4.9,5.46a1.13,1.13,0,0,0,1.06,1.19c1.18.21,2.35.47,3.53.66.52.08.74.22.65.83-.57,3.78-1.09,7.57-1.61,11.36,0,.38,0,.7-.57.71-3.52,0-7,.2-10.21-1.8a14.48,14.48,0,0,1-7-13.54c.25-6.82,3.18-12.35,9.12-16A15.35,15.35,0,0,1,418.88.6C424,.62,429.19.6,434.34.6Z"/><path class="cls-3" d="M382,21.54a2,2,0,0,1-1.4-3.42c1.32-1.33,2.62-2.61,3.92-3.89a.91.91,0,0,0,.2-1.3A8.76,8.76,0,0,1,391.25.58c5.81-.94,10.51,4.57,9.35,10.35a18.76,18.76,0,0,1-5.18,10,1.9,1.9,0,0,1-1.45.65Z"/><path class="cls-4" d="M140.67,86.85c4.91,0,9.67,0,14.42,0,.79,0,.78.54.93,1l7.32,22.22,1.73,5.21,12.22-19.59c2.19,6.62,4.3,13,6.48,19.58.53-.83,1-1.51,1.39-2.2Q193,100.44,200.9,87.79a1.71,1.71,0,0,1,1.69-1c4.95,0,9.91,0,15.08,0l-38.26,61.29c-2.14-6.59-4.21-13-6.34-19.55l-12.2,19.47Z"/><path class="cls-4" d="M283.63,108.22c4.34,0,8.57,0,12.81,0a2.52,2.52,0,0,0,2.18-1,6,6,0,0,0,1.28-5.81,1.44,1.44,0,0,0-1.56-1.15c-5.64,0-11.27,0-16.91,0-.7,0-.93.18-1,.9-1.07,7.82-2.19,15.63-3.29,23.45-.72,5.09-1.45,10.18-2.15,15.27-.07.56-.29.74-.83.73-4.2,0-8.39,0-12.59,0-.82,0-.79-.38-.71-1q.78-5.38,1.54-10.77,2-14.09,4-28.18c.61-4.39,1.27-8.76,1.85-13.15.09-.64.33-.76.9-.75,10.83,0,21.66-.06,32.49,0,5.47.05,10.56,4.52,12.21,10.38a19.92,19.92,0,0,1-9.73,22.7c-.82.43-.82.81-.55,1.55,2.23,6,4.4,12,6.65,18,.39,1.05.1,1.14-.84,1.13-4.27,0-8.55,0-12.83,0-.62,0-1-.09-1.23-.78q-5.76-15.61-11.59-31.21A2.15,2.15,0,0,1,283.63,108.22Z"/><path class="cls-4" d="M178.87,22c4.33,0,8.56,0,12.8,0a2.69,2.69,0,0,0,2.49-1.33,6,6,0,0,0,.93-5.65,1.33,1.33,0,0,0-1.43-1c-5.63,0-11.27,0-16.91,0-.88,0-1,.35-1.12,1.1q-2.44,17.52-4.94,35.05c-.17,1.18-.38,2.36-.5,3.55-.05.52-.22.66-.73.66-4.28,0-8.55,0-12.83,0-.57,0-.64-.21-.57-.72q1.71-12,3.39-23.91Q161.21,17.4,163,5c.17-1.23.37-2.45.49-3.68.07-.63.35-.75.93-.75,10.79,0,21.59,0,32.38,0,5,0,9.83,3.79,11.8,8.94a19.81,19.81,0,0,1-9.13,24.11c-.86.47-.92.83-.59,1.7,2.23,6,4.37,12,6.59,17.92.32.89.25,1.14-.77,1.13-4.32-.06-8.64,0-13,0-.59,0-.94-.12-1.16-.72Q184.78,38.06,179,22.46A4.25,4.25,0,0,1,178.87,22Z"/><path class="cls-4" d="M228.45,89.06c-11.07,17.22-22.07,34.33-33.13,51.55h61.85l-18-50.32A6,6,0,0,0,228.45,89.06ZM231.18,110l6,17.1H220.28Z"/><path class="cls-4" d="M152.07,53.24c-4.15-11.52-12.59-35.07-17.69-49.3a6,6,0,0,0-10.6-1.21L90.67,54.22a1.29,1.29,0,0,0,1,.17q29.79,0,59.57,0C152.28,54.42,152.42,54.2,152.07,53.24Zm-36.52-12.4c3.63-5.7,7.23-11.33,10.91-17.1l6,17.1Z"/><path class="cls-4" d="M276.76.6c2.12,0,4.24,0,6.36,0,.57,0,.74.1.65.72-1.33,9.16-2.6,18.32-4,27.47-1,6.48,4.44,12.31,11.32,12.07,6.54-.23,13.21-5.2,15-11.49a54,54,0,0,0,1.19-7.43q1.49-10.29,2.91-20.6c.07-.52.24-.75.82-.74,4.24,0,8.48,0,12.71,0,.84,0,.66.42.59.87-.64,4.62-1.27,9.24-1.92,13.86-.69,4.86-1.26,9.73-2.14,14.55-2.15,11.76-12.53,22-24.37,24.19-7.6,1.42-14.73.38-21-4.38-5.7-4.32-8.6-10.21-9.13-17.31-.29-3.82.54-7.54,1-11.29.87-6.52,1.84-13,2.73-19.54.1-.73.32-1,1.08-.95C272.68.64,274.72.6,276.76.6Z"/><path class="cls-4" d="M347.69.6c4.75,0,9.52.17,14.26,0,6.9-.3,12.35,4.36,14.11,10.64,2.57,9.19-2.6,19.79-11.48,23.31a14,14,0,0,1-5.14,1c-3.95,0-7.91,0-11.87,0-.86,0-1-.27-.87-1q.87-5.85,1.67-11.72c.1-.74.42-.87,1.09-.86,3,0,6.08,0,9.12,0a3,3,0,0,0,.95,0c1.64-.63,2.21-2.12,2.65-3.61a4.43,4.43,0,0,0-.56-4c-.25-.35-.64-.26-1-.26-5.68,0-11.35,0-17,0-.75,0-.92.28-1,1q-2.47,17.64-5,35.28c-.16,1.15-.35,2.29-.48,3.44-.05.47-.15.7-.7.69-4.27,0-8.55,0-12.82,0-.52,0-.7-.11-.62-.68q1.36-9.4,2.67-18.82,1.75-12.37,3.5-24.75c.41-2.92.85-5.84,1.2-8.77.1-.84.56-.78,1.14-.78Z"/><path class="cls-4" d="M240.09.6c7.51,0,15,0,22.53,0,.95,0,1.37,0,1.15,1.22-.63,3.61-1.1,7.25-1.54,10.89-.13,1.07-.47,1.41-1.6,1.39-4.72-.08-9.43,0-14.15-.06-1,0-1.32.32-1.45,1.27-.95,7-1.95,14.05-2.94,21.08-.8,5.76-1.62,11.52-2.42,17.28-.07.55-.28.74-.83.74-4.2,0-8.39,0-12.59,0-1,0-.76-.55-.68-1.08q.87-6.27,1.76-12.55,1.63-11.47,3.25-23c.13-.95.23-1.9.43-2.84.16-.76-.08-.94-.84-.94-4.83,0-9.67,0-14.5.05-1.2,0-1.26-.39-1.11-1.35.57-3.66,1.12-7.32,1.58-11,.12-.91.37-1.17,1.29-1.16C225,.62,232.54.6,240.09.6Z"/><path class="cls-4" d="M17.29,54.39c-5.43,0-10.87,0-16.3,0-.86,0-1.09-.2-1-1.06.59-3.82,1.15-7.65,1.64-11.48.12-.85.47-1,1.23-1q14,0,28.05,0c3.51,0,5.16-1.72,5.08-5.23,0-.78-.27-1.17-1.05-1.29-1.22-.2-2.42-.49-3.64-.68-.54-.09-.62-.3-.55-.79q.81-5.74,1.58-11.49c.05-.37,0-.68.57-.69,3.77-.08,7.51-.13,10.82,2.17a14.47,14.47,0,0,1,6.45,13.24c-.33,7.49-3.67,13.25-10.53,16.7a15,15,0,0,1-6.81,1.57C27.68,54.38,22.48,54.39,17.29,54.39Z"/><path class="cls-4" d="M414.34,54.39c-5.39,0-10.78,0-16.18,0-1,0-1.11-.26-1-1.15q.9-5.84,1.68-11.71c.12-.94.74-.66,1.22-.66h28.17c3.32,0,5.1-1.93,4.94-5.29a1.11,1.11,0,0,0-1-1.22c-1.18-.2-2.34-.5-3.52-.66-.62-.09-.82-.27-.73-.89.54-3.79,1.06-7.58,1.6-11.37,0-.3-.1-.75.51-.74,3,0,6-.26,8.82,1.07a14,14,0,0,1,8.4,11.8c.9,8.35-3.57,16.72-11.72,19.79a15.13,15.13,0,0,1-5.49,1Z"/><path class="cls-4" d="M108,2c-.52,3.63-1.05,7.26-1.52,10.89-.11.86-.35,1.19-1.31,1.18-4.87-.06-9.74,0-14.62-.05-.79,0-1,.18-1.16,1Q87.06,32,84.64,48.92c-.22,1.57-.5,3.15-.66,4.73-.07.67-.37.76-.92.75-4.16,0-8.31,0-12.47,0-.74,0-.86-.26-.77-.91q1.38-9.59,2.73-19.17C73.46,27.9,74.36,21.47,75.3,15c.12-.82-.12-1-.91-1-4.84,0-9.67,0-14.51,0a1.81,1.81,0,0,1-.79-.11c-2.43.2-6.08.12-6.63.11q-14.1,0-28.18,0c-3.37,0-5.28,2.1-5,5.39a1.2,1.2,0,0,0,1.12,1.27c1.15.17,2.27.47,3.42.63.61.08.78.3.69.91-.54,3.74-1.06,7.5-1.6,11.24,0,.32.07.77-.51.76-2.7-.06-5.42.23-8.06-.76-5.61-2.11-9.25-7.58-9.28-14A19.07,19.07,0,0,1,16.89,1.62a13.92,13.92,0,0,1,5-1q16.31,0,32.61,0c.31,0,6.35,0,6.78,0h0a2.24,2.24,0,0,1,.38,0c7.59,0,15.18,0,22.77,0h22.3C108.23.61,108.21.6,108,2Z"/><path class="cls-4" d="M434.34.6c5.48,0,11,0,16.43,0,.88,0,1,.21.9,1-.6,3.9-1.17,7.8-1.67,11.72-.11.91-.65.71-1.16.72h-28.3c-3.35,0-5.19,2.11-4.9,5.46a1.13,1.13,0,0,0,1.06,1.19c1.18.21,2.35.47,3.53.66.52.08.74.22.65.83-.57,3.78-1.09,7.57-1.61,11.36,0,.38,0,.7-.57.71-3.52,0-7,.2-10.21-1.8a14.48,14.48,0,0,1-7-13.54c.25-6.82,3.18-12.35,9.12-16A15.35,15.35,0,0,1,418.88.6C424,.62,429.19.6,434.34.6Z"/><path class="cls-4" d="M382,21.54a2,2,0,0,1-1.4-3.42c1.32-1.33,2.62-2.61,3.92-3.89a.91.91,0,0,0,.2-1.3A8.76,8.76,0,0,1,391.25.58c5.81-.94,10.51,4.57,9.35,10.35a18.76,18.76,0,0,1-5.18,10,1.9,1.9,0,0,1-1.45.65Z"/></g></g></svg>